HIERARCHY
ROOT joint_Root
{
	OFFSET 0.0 0.0 0.0
	CHANNELS 6 Xposition Yposition Zposition Zrotation Xrotation Yrotation 
	JOINT Hips
	{
		OFFSET -0.726466 93.3139 -2.00062
		CHANNELS 6 Xposition Yposition Zposition Zrotation Xrotation Yrotation 
		JOINT Spine
		{
			OFFSET 15.7357 0.0 0.0
			CHANNELS 6 Xposition Yposition Zposition Zrotation Xrotation Yrotation 
			JOINT Chest
			{
				OFFSET 8.98455 -0.406207 0.0
				CHANNELS 6 Xposition Yposition Zposition Zrotation Xrotation Yrotation 
				JOINT Neck
				{
					OFFSET 16.3773 0.0 0.0
					CHANNELS 6 Xposition Yposition Zposition Zrotation Xrotation Yrotation 
					JOINT Head
					{
						OFFSET 6.45672 0.0 0.0
						CHANNELS 6 Xposition Yposition Zposition Zrotation Xrotation Yrotation 
						End Site
						{
							OFFSET 0.0 0.0 0.0
						}
					}
				}
				JOINT Shoulder_L
				{
					OFFSET 12.9942 -0.242716 4.98039
					CHANNELS 6 Xposition Yposition Zposition Zrotation Xrotation Yrotation 
					JOINT UpperArm_L
					{
						OFFSET 5.34809 0.0 0.0
						CHANNELS 6 Xposition Yposition Zposition Zrotation Xrotation Yrotation 
						JOINT LowerArm_L
						{
							OFFSET 24.3286 1.87007e-05 0.0
							CHANNELS 6 Xposition Yposition Zposition Zrotation Xrotation Yrotation 
							JOINT Hand_L
							{
								OFFSET 22.2916 0.0 0.0
								CHANNELS 6 Xposition Yposition Zposition Zrotation Xrotation Yrotation 
								End Site
								{
									OFFSET 0.0 0.0 0.0
								}
							}
						}
					}
				}
				JOINT Shoulder_R
				{
					OFFSET 12.9945 -0.242716 -4.98039
					CHANNELS 6 Xposition Yposition Zposition Zrotation Xrotation Yrotation 
					JOINT UpperArm_R
					{
						OFFSET -5.34813 0.0 0.0
						CHANNELS 6 Xposition Yposition Zposition Zrotation Xrotation Yrotation 
						JOINT LowerArm_R
						{
							OFFSET -24.3289 0.000322201 0.0
							CHANNELS 6 Xposition Yposition Zposition Zrotation Xrotation Yrotation 
							JOINT Hand_R
							{
								OFFSET -22.2915 -0.000108084 0.0
								CHANNELS 6 Xposition Yposition Zposition Zrotation Xrotation Yrotation 
								End Site
								{
									OFFSET 0.0 0.0 0.0
								}
							}
						}
					}
				}
			}
		}
		JOINT UpperLeg_L
		{
			OFFSET -2.19248 -6.46944 0.0
			CHANNELS 6 Xposition Yposition Zposition Zrotation Xrotation Yrotation 
			JOINT LowerLeg_L
			{
				OFFSET 39.0811 0.0 -1.23785e-05
				CHANNELS 6 Xposition Yposition Zposition Zrotation Xrotation Yrotation 
				JOINT Foot_L
				{
					OFFSET 40.9854 0.0 -1.26872e-05
					CHANNELS 6 Xposition Yposition Zposition Zrotation Xrotation Yrotation 
					JOINT Toes_L
					{
						OFFSET 11.7543 0.0 0.0
						CHANNELS 6 Xposition Yposition Zposition Zrotation Xrotation Yrotation 
						End Site
						{
							OFFSET 0.0 0.0 0.0
						}
					}
				}
			}
		}
		JOINT UpperLeg_R
		{
			OFFSET -2.19251 6.46944 0.0
			CHANNELS 6 Xposition Yposition Zposition Zrotation Xrotation Yrotation 
			JOINT LowerLeg_R
			{
				OFFSET -39.0811 -0.00228153 -0.0401928
				CHANNELS 6 Xposition Yposition Zposition Zrotation Xrotation Yrotation 
				JOINT Foot_R
				{
					OFFSET -40.9854 0.0 0.0
					CHANNELS 6 Xposition Yposition Zposition Zrotation Xrotation Yrotation 
					JOINT Toes_R
					{
						OFFSET -11.7543 0.0 0.0
						CHANNELS 6 Xposition Yposition Zposition Zrotation Xrotation Yrotation 
						End Site
						{
							OFFSET 0.0 0.0 0.0
						}
					}
				}
			}
		}
	}
}
MOTION
Frames:	7
Frame Time:	0.0333333
0.000000 0.000000 0.000000 0.000000 0.000000 -0.000000 2.822940 87.629000 -60.096400 84.014900 6.172470 -9.166010 15.735700 0.000005 -0.000001 69.212800 78.855500 -66.782600 8.984550 -0.406207 -0.000000 13.330000 -7.710660 5.769190 16.377300 -0.000001 -0.000001 5.146370 -1.816740 0.237434 6.456720 -0.000001 -0.000000 -3.925850 3.743840 -0.793077 12.994200 -0.242716 4.980390 -86.745500 -9.214270 -70.447700 5.348090 -0.000007 -0.000001 -50.097900 19.037400 -19.049500 24.328600 0.000019 0.000005 -4.716620 -0.952617 -78.606700 22.291600 -0.000001 0.000005 0.814112 5.622740 -12.810500 12.994500 -0.242716 -4.980390 90.558700 -1.038580 -61.731100 -5.348130 -0.000001 -0.000004 -50.636000 37.031000 3.047480 -24.328900 0.000322 -0.000009 -5.614810 -2.918890 -62.615000 -22.291500 -0.000108 -0.000004 1.547960 5.597420 -11.187400 -2.192480 -6.469440 -0.000000 -172.368000 -4.260530 -3.996790 39.081100 -0.000007 -0.000012 0.006973 -0.009509 36.245000 40.985400 -0.000006 -0.000013 3.608560 4.264700 -73.353700 11.754300 -0.000000 0.000003 -0.079289 -0.389962 -32.763900 -2.192510 6.469440 -0.000001 -169.824000 10.148700 132.613000 -39.081100 -0.002282 -0.040193 -0.061029 -0.007653 96.704100 -40.985400 0.000008 0.000006 7.149540 -14.002900 -53.779500 -11.754300 -0.000006 -0.000006 -0.017062 -0.150435 -22.714300
0.000000 0.000000 0.000000 0.000000 0.000000 -0.000000 2.447000 90.973100 -49.448100 83.503400 9.597150 -11.146500 15.735700 0.000005 -0.000001 63.324100 79.293900 -59.715800 8.984550 -0.406207 -0.000000 11.793300 -9.407630 8.201270 16.377300 -0.000001 -0.000001 6.314860 -2.583410 -0.152527 6.456720 -0.000001 -0.000000 -4.385220 4.039640 -1.164760 12.994200 -0.242716 4.980390 -86.333800 -11.210600 -71.757900 5.348090 -0.000007 -0.000001 -52.694700 19.688000 -19.831500 24.328600 0.000019 0.000005 -4.839630 -0.912625 -79.346300 22.291600 -0.000001 0.000005 1.537990 5.620110 -12.632500 12.994500 -0.242716 -4.980390 91.198200 -2.090010 -60.165600 -5.348130 -0.000001 -0.000004 -54.062700 34.661500 7.461330 -24.328900 0.000322 -0.000009 -3.921240 -1.984380 -63.189800 -22.291500 -0.000108 -0.000004 1.484520 5.594830 -11.038700 -2.192480 -6.469440 -0.000000 -168.144000 -7.789080 0.444024 39.081100 -0.000007 -0.000012 0.019689 -0.037059 27.980800 40.985400 -0.000006 -0.000013 0.761745 12.055200 -49.751200 11.754300 -0.000000 0.000003 -0.207926 -0.658121 -44.844500 -2.192510 6.469440 -0.000001 -167.858000 10.052300 130.044000 -39.081100 -0.002282 -0.040193 0.037996 -0.006585 79.374500 -40.985400 0.000008 0.000006 5.293500 -8.281630 -59.122400 -11.754300 -0.000006 -0.000006 -0.018862 -0.160900 -23.144800
0.000000 0.000000 0.000000 0.000000 0.000000 -0.000000 2.245460 93.437100 -38.821100 84.700700 11.062800 -11.766900 15.735700 0.000005 -0.000001 60.131100 79.276600 -56.229100 8.984550 -0.406207 -0.000000 11.344000 -10.478400 8.861950 16.377300 -0.000001 -0.000001 7.892830 -2.913260 -0.389734 6.456720 -0.000001 -0.000000 -6.132490 3.856330 -1.621350 12.994200 -0.242716 4.980390 -86.196100 -12.524000 -72.953500 5.348090 -0.000007 -0.000001 -56.666600 19.066200 -18.725000 24.328600 0.000019 0.000005 -3.534150 -0.631971 -79.875500 22.291600 -0.000001 0.000005 2.556510 5.608510 -11.868400 12.994500 -0.242716 -4.980390 91.895200 -3.224450 -59.533700 -5.348130 -0.000001 -0.000004 -57.950100 32.510500 10.388400 -24.328900 0.000322 -0.000009 -3.444660 -1.789180 -62.574200 -22.291500 -0.000108 -0.000004 1.422110 5.592500 -10.903400 -2.192480 -6.469440 -0.000000 -164.572000 -12.701900 5.458480 39.081100 -0.000007 -0.000012 0.077215 -0.197677 21.336300 40.985400 -0.000006 -0.000013 -9.263510 14.691100 -29.658300 11.754300 -0.000000 0.000003 -0.013341 -0.127119 -21.760900 -2.192510 6.469440 -0.000001 -168.542000 10.874600 132.255000 -39.081100 -0.002282 -0.040193 0.047479 -0.027969 57.713400 -40.985400 0.000008 0.000006 2.143910 -2.943830 -62.445400 -11.754300 -0.000006 -0.000006 -0.020292 -0.168900 -23.474200
0.000000 0.000000 0.000000 0.000000 0.000000 -0.000000 2.542850 93.888500 -27.791300 86.763500 12.353400 -12.308100 15.735700 0.000005 -0.000001 56.206800 79.145700 -52.370500 8.984550 -0.406207 -0.000000 10.861100 -11.887000 8.824820 16.377300 -0.000001 -0.000001 8.146990 -3.166990 -0.234458 6.456720 -0.000001 -0.000000 -6.383360 4.055490 -2.421540 12.994200 -0.242716 4.980390 -86.191900 -12.858700 -73.348300 5.348090 -0.000007 -0.000001 -60.015900 18.930700 -16.417500 24.328600 0.000019 0.000005 -3.073910 -0.531824 -80.194100 22.291600 -0.000001 0.000005 3.619540 5.615450 -12.298600 12.994500 -0.242716 -4.980390 92.081700 -3.466740 -58.989200 -5.348130 -0.000001 -0.000004 -59.355400 32.023100 11.162000 -24.328900 0.000322 -0.000009 -3.000840 -1.573040 -62.350100 -22.291500 -0.000108 -0.000004 1.545950 5.597890 -11.216800 -2.192480 -6.469440 -0.000000 -164.350000 -11.023700 7.625440 39.081100 -0.000007 -0.000012 0.080157 -0.168873 25.391700 40.985400 -0.000006 -0.000013 -4.238180 6.784670 -34.119400 11.754300 -0.000000 0.000003 -0.005684 -0.067946 -19.341900 -2.192510 6.469440 -0.000001 -168.683000 15.067700 135.653000 -39.081100 -0.002282 -0.040193 0.001320 0.002730 35.793700 -40.985400 0.000008 0.000006 -1.146510 -0.536158 -65.136300 -11.754300 -0.000006 -0.000006 -0.021122 -0.173426 -23.660800
0.000000 0.000000 0.000000 0.000000 0.000000 -0.000000 2.901650 92.949600 -16.225700 89.919900 13.212500 -11.727900 15.735700 0.000005 -0.000001 53.244200 78.763900 -50.049600 8.984550 -0.406207 -0.000000 10.835100 -13.269500 7.672420 16.377300 -0.000001 -0.000001 7.794480 -3.500870 -0.245014 6.456720 -0.000001 -0.000000 -5.862560 4.342730 -2.634700 12.994200 -0.242716 4.980390 -86.288600 -12.543100 -73.369800 5.348090 -0.000007 -0.000001 -62.540500 20.199300 -13.252500 24.328600 0.000019 0.000005 -4.391600 -0.854964 -79.007800 22.291600 -0.000001 0.000005 5.997170 5.632040 -13.468100 12.994500 -0.242716 -4.980390 91.524700 -2.488320 -58.486300 -5.348130 -0.000001 -0.000004 -58.425100 32.329500 10.158600 -24.328900 0.000322 -0.000009 -3.865330 -2.052180 -62.068900 -22.291500 -0.000108 -0.000004 1.765840 5.601940 -11.459600 -2.192480 -6.469440 -0.000000 -165.968000 -6.784950 10.005000 39.081100 -0.000007 -0.000012 0.074462 -0.114411 33.057100 40.985400 -0.000006 -0.000013 -1.116890 -5.511340 -39.418900 11.754300 -0.000000 0.000003 -0.005844 -0.069417 -19.401800 -2.192510 6.469440 -0.000001 -168.549000 21.134900 139.026000 -39.081100 -0.002282 -0.040193 -0.020966 0.066896 19.954300 -40.985400 0.000008 0.000006 -4.600830 0.808859 -67.746700 -11.754300 -0.000006 -0.000006 -0.024012 -0.188575 -24.286000
0.000000 0.000000 0.000000 0.000000 0.000000 -0.000000 3.101860 91.152000 -4.557940 92.344000 12.362300 -11.043200 15.735700 0.000005 -0.000001 54.377100 78.905900 -51.886300 8.984550 -0.406207 -0.000000 10.752200 -12.769900 6.201750 16.377300 -0.000001 -0.000001 7.921740 -4.078550 -0.147061 6.456720 -0.000001 -0.000000 -5.979090 4.197210 -2.783870 12.994200 -0.242716 4.980390 -86.547800 -11.739600 -73.485200 5.348090 -0.000007 -0.000001 -64.520000 22.508300 -10.244500 24.328600 0.000019 0.000005 -4.909060 -1.306840 -75.125700 22.291600 -0.000001 0.000005 9.081130 5.650620 -15.052800 12.994500 -0.242716 -4.980390 90.389000 -0.632954 -58.430600 -5.348130 -0.000001 -0.000004 -56.334700 31.203300 7.595490 -24.328900 0.000322 -0.000009 -4.536720 -2.509620 -61.101100 -22.291500 -0.000108 -0.000004 2.019900 5.605880 -11.697800 -2.192480 -6.469440 -0.000000 -170.485000 -1.276980 11.828600 39.081100 -0.000007 -0.000012 0.115844 -0.124928 42.838600 40.985400 -0.000006 -0.000013 7.019510 -14.143100 -39.816400 11.754300 -0.000000 0.000003 -0.005603 -0.067198 -19.311300 -2.192510 6.469440 -0.000001 -168.453000 24.036000 139.220000 -39.081100 -0.002282 -0.040193 -0.023938 0.082839 18.216300 -40.985400 0.000008 0.000006 -6.144520 -1.937400 -69.893600 -11.754300 -0.000006 -0.000006 -0.024930 -0.193207 -24.477400
0.000000 0.000000 0.000000 0.000000 0.000000 -0.000000 3.150560 88.664400 6.928540 90.801200 9.732670 -9.793060 15.735700 0.000005 -0.000001 62.070900 79.308500 -59.182400 8.984550 -0.406207 -0.000000 11.508100 -9.842630 6.780360 16.377300 -0.000001 -0.000001 8.117150 -4.060150 -0.389347 6.456720 -0.000001 -0.000000 -7.417330 3.377460 -3.001100 12.994200 -0.242716 4.980390 -87.144700 -9.630570 -73.397500 5.348090 -0.000007 -0.000001 -64.766200 25.067100 -7.282430 24.328600 0.000019 0.000005 -4.240430 -1.532170 -70.165300 22.291600 -0.000001 0.000005 9.376780 5.655950 -15.614400 12.994500 -0.242716 -4.980390 89.055300 1.620690 -59.745200 -5.348130 -0.000001 -0.000004 -52.724100 28.576500 3.065840 -24.328900 0.000322 -0.000009 -5.129010 -2.913290 -60.473200 -22.291500 -0.000108 -0.000004 2.970290 5.613660 -12.193700 -2.192480 -6.469440 -0.000000 -170.763000 -1.463360 9.366460 39.081100 -0.000007 -0.000012 0.096869 -0.056173 59.889300 40.985400 -0.000006 -0.000013 9.789530 -13.888600 -38.450300 11.754300 -0.000000 0.000003 -0.005072 -0.062172 -19.106500 -2.192510 6.469440 -0.000001 -166.463000 20.312400 137.228000 -39.081100 -0.002282 -0.040193 0.229929 -0.397257 29.704100 -40.985400 0.000008 0.000006 10.095600 -4.159840 -63.863000 -11.754300 -0.000006 -0.000006 -0.041802 -0.267213 -27.555000
